# xmcd CD database file
#
# Track frame offsets:
#	150
#	13480
#	15684
#	29772
#	42826
#	61394
#	71311
#	88245
#	103698
#	118423
#	134967
#	148211
#
# Disc length: 2231 seconds
#
# Revision: 0
# Processed by: cddbd v1.5.2PL0 Copyright (c) Steve Scherf et al.
# Submitted via: CDex 1.70beta2
#
DISCID=bf08b50c
DTITLE=Matthieu Boré - Naked Songs
DYEAR=2015
DGENRE=Jazz
TTITLE0=Lonely At The Top
TTITLE1=Allegreto
TTITLE2=I'm Putting All My Eggs In One Basket
TTITLE3=Police On My Back
TTITLE4=Over The Rainbow
TTITLE5=Ring Of Fire
TTITLE6=Hallelujah
TTITLE7=Wives and Lovers
TTITLE8=Best Friends
TTITLE9=And So It Goes
TTITLE10=You'd Be So Nice To Come Home To
TTITLE11=Two Sleepy People
EXTD=YEAR: 2015
EXTT0=
EXTT1=
EXTT2=
EXTT3=
EXTT4=
EXTT5=
EXTT6=
EXTT7=
EXTT8=
EXTT9=
EXTT10=
EXTT11=
PLAYORDER=
